			<svg
				aria-hidden="true"
				class="me-3 h-10 w-6 sm:absolute sm:-start-18 sm:me-0 sm:h-20 sm:w-12"
				fill="none"
				focusable="false"
				viewBox="0 0 512 512"
				xmlns="http://www.w3.org/2000/svg"
			>
				<title>Logo</title>
				<path
					style="fill:#ee09ea;"
					d="M208.938 49.219c4.726.851 7.738 5.523 10.32 9.215 5.297 7.804 9.422 16.34 13.648 24.754l.54 1.07A266 266 0 0 1 240.5 99.5c.348-.07.695-.14 1.05-.215l4.825-.972c.547-.11 1.094-.223 1.656-.336C262.816 95 279.133 93.687 294 97l1.398.309c9.594 2.191 18.434 5.558 27.102 10.191.578.309 1.16.613 1.758.93 14.199 7.824 27.695 19.468 37.695 32.242a101 101 0 0 0 3.059 3.668 113 113 0 0 1 6.27 7.91c.206.29.417.574.632.871 1.11 1.566 1.961 3.063 2.586 4.879-.637-.11-1.273-.215-1.93-.328-10.175-2.078-10.175-2.078-20.07-.672.21 2.781.965 4.563 2.625 6.75l.668.906c2.465 3.285 5.172 6.356 7.894 9.426 6.7 7.578 13.172 15.383 19.313 23.418l.773 1.008A300.5 300.5 0 0 1 405 230.5l.64 1.105c1.5 2.606 2.946 5.239 4.36 7.895l.688 1.285c7.457 14.11 13.109 28.988 17.812 44.215.102.324.203.648.305.984.3.965.59 1.934.879 2.899l.511 1.707c.305 1.41.305 1.41-.195 2.91-.488-.328-.488-.328-.984-.664-11.383-8.11-11.383-8.11-24.016-13.836 1.297 5.844 3.422 11.148 5.813 16.625 1.078 2.48 2.14 4.973 3.199 7.465.215.5.425 1.004.644 1.52 3.192 7.535 6.082 15.187 8.844 22.89.184.516.184.516.375 1.04 10.172 28.42 15.98 57.847 18.535 87.886q.124 1.446.254 2.89c.508 6.598.41 13.22.402 19.832q-.004 2.668 0 5.329c.004 1.394 0 2.785 0 4.18q-.001 1.445.004 2.898a125 125 0 0 1-.324 9.09c-.273 4.277-.246 8.57-.246 12.855H238c.598-2.684 1.16-5.172 1.98-7.762.192-.605.383-1.207.583-1.832.101-.316.199-.636.304-.96q.488-1.53.969-3.06l1.383-4.37a3870 3870 0 0 0 3.957-12.563c6.066-19.36 12.027-38.898 15.324-58.953.094-.559.184-1.117.277-1.695 1.563-9.739 2.325-19.461 2.723-29.305.02-.434.035-.871.055-1.32.777-22.094.16-54.133-14.813-71.746C250 279 250 279 249.457 277.91c-.605-1.207-1.242-1.355-2.457-1.91l-1.312-1.062c-1.067-1.04-1.067-1.04-2.188-.938l-.457.852c-27.106 50.503-27.106 50.503-45.016 56.472-1.351.23-2.656.262-4.027.27l-1.562.023c-1.422-.117-2.235-.383-3.438-1.117l-.04 1.105c-.694 12.832-4.827 26.915-14.46 35.832-3.871 3.208-8.176 4.793-13.219 4.5-7.238-.914-13.031-5.57-17.68-10.976-2.062-2.738-3.847-5.652-5.581-8.602-.43-.71-.899-1.398-1.38-2.078-.91-1.82-1.07-3.625-1.234-5.625l-.117-1.394c-.91-12.59-1.164-25.832 1.211-38.262q.11-.584.227-1.187c.492-2.473 1.097-4.887 1.773-7.313.16-.59.324-1.176.492-1.785 2.016-6.637 5.059-13.328 8.758-19.2 2.113-3.788 2.95-8.187 4.031-12.359.133-.5.262-1 .399-1.515 3.664-13.922 6.828-27.973 10.05-42.004l.325-1.414q.768-3.34 1.53-6.68.269-1.186.544-2.371c.082-.36.164-.719.246-1.09.566-2.469.566-2.469 1.125-3.582l-.871-.406c-1.16-.61-2.156-1.297-3.207-2.082l-1.195-.887c-.415-.309-.832-.617-1.258-.937l-1.305-.942c-3.64-2.648-3.64-2.648-5.16-4.238-1.363-1.332-2.149-2.035-4.004-2.508-3.094.582-5.918 2.113-8.742 3.45-1.844.808-3.711 1.316-5.664 1.769l-1.852.433c-16.195 3.22-32.617-.843-46.289-9.84A72 72 0 0 1 81.5 184.5c.324-1.562.863-2.8 1.633-4.195.351-.649.351-.649.715-1.305.254-.465.511-.93.777-1.406.266-.489.535-.973.813-1.473 2.707-4.914 5.472-9.8 8.242-14.68 1.886-3.316 3.761-6.636 5.636-9.96q1.569-2.78 3.149-5.551 1.224-2.152 2.441-4.305l.934-1.633c.285-.5.566-1 .855-1.515.254-.442.504-.887.766-1.34.644-1.153.644-1.153.539-2.637-.695-.766-.695-.766-1.656-1.5-3.043-2.55-5.778-5.406-8.563-8.227-3.3-3.359-3.3-3.359-6.781-6.523-2.906-2.484-5.535-5.258-8.219-7.977-3.3-3.359-3.3-3.359-6.781-6.523-2.906-2.484-5.535-5.258-8.219-7.977-2.511-2.546-5.039-5.035-7.754-7.359-2.672-2.379-5.129-5-7.636-7.547-2.29-2.305-4.594-4.535-7.059-6.648A47 47 0 0 1 42.5 71.53c-.29-.293-.578-.586-.875-.89q-.31-.314-.625-.641c.496-.246.496-.246 1-.5 1.031.438 1.031.438 2.32 1.145l1.45.793 1.574.874 1.633.895a1012 1012 0 0 1 12.199 6.856A540 540 0 0 0 71.5 85.75a657 657 0 0 1 13.18 7.313A508 508 0 0 0 95 98.75c5.438 2.926 10.816 5.95 16.188 9.004q3.012 1.71 6.03 3.402c.337.192.677.38 1.024.574.75.422 1.504.848 2.258 1.27a32 32 0 0 0 3.59-5.258q.444-.8.898-1.625c.313-.574.625-1.152.95-1.742q.497-.906 1-1.812 1.026-1.866 2.054-3.731c1.52-2.766 3.059-5.52 4.602-8.27.289-.511.574-1.027.87-1.554 2.11-3.766 4.247-7.512 6.395-11.254A937 937 0 0 0 148 65c8.379 1.793 16.707 13.16 21.164 19.898a986 986 0 0 1 1.961 3.086c6.504 10.383 11.73 24.493 11.313 36.883-.25 4.227-.25 4.227 1.218 8.043 1.735 1.707 3.711 2.938 5.844 4.09.754-1.508.586-3.074.594-4.73l.011-1.172c.016-1.297.024-2.594.036-3.895.007-.914.02-1.832.027-2.75q.03-2.93.055-5.867a8041 8041 0 0 1 .164-16.79 3888 3888 0 0 1 .43-29.726q.088-5.039.183-10.07c1.457 1.418 2.809 2.809 3.992 4.469.387.543.387.543.785 1.097l.817 1.153.851 1.191q.863 1.208 1.72 2.414c.788 1.11 1.577 2.215 2.37 3.324 1.156 1.614 2.313 3.235 3.465 4.852-.035-.477-.07-.953-.11-1.441-.327-4.778-.456-9.551-.48-14.34q-.006-1.476-.023-2.946c-.008-7.812-.008-7.812 1.988-11.304 1.125-.969 1.125-.969 2.563-1.25m0 0"
				></path><path
					style="fill:#d6e4ed;"
					d="M268.148 159.828c.926.73 1.883 1.402 2.848 2.078 4.817 3.496 4.817 3.496 5.293 6.27-.246 1.87-.707 3.527-1.289 5.324-.145.61-.285 1.219-.434 1.848C273 181.98 270.446 188.125 267 194h-1c-.043.281-.082.563-.125.852-1.492 4.59-7.348 8.695-11.371 11.011-8.871 4.418-17.871 4.54-27.2 1.606-8.484-3.106-15.476-8.04-21.976-14.219a51 51 0 0 0-2.387-2.125c-.847-.719-.847-.719-1.941-2.125.75-13.121 7.703-26.488 17-35.5 15.652-13.52 36.215-5.082 50.148 6.328m0 0"
				></path><path
					style="fill:#2286c1;"
					d="M238.5 157c4.707 1.2 8.871 5.742 11.344 9.734 3.644 7.028 4.82 14.727 3.312 22.54-1.246 3.667-3.46 7.632-7.07 9.414-3.445.996-7.024.78-10.274-.72-3.37-1.937-5.867-4.624-7.812-7.968v-1h-1c-3.45-7.09-5.023-15.156-2.875-22.937 2.555-6.747 7.371-9.704 14.375-9.063m0 0"
				></path><path
					style="fill:#e88d58;"
					d="M268.148 159.828c.926.73 1.883 1.402 2.848 2.078 4.817 3.496 4.817 3.496 5.293 6.27-.246 1.87-.707 3.527-1.289 5.324-.145.61-.285 1.219-.434 1.848C273 181.98 270.446 188.125 267 194h-1c-.043.281-.082.563-.125.852-1.492 4.59-7.348 8.695-11.371 11.011-8.871 4.418-17.871 4.54-27.2 1.606-8.484-3.106-15.476-8.04-21.976-14.219a51 51 0 0 0-2.387-2.125c-.847-.719-.847-.719-1.941-2.125.75-13.121 7.703-26.488 17-35.5 15.652-13.52 36.215-5.082 50.148 6.328m-52.554 2.29c-5.344 6.757-9.649 16.019-10.754 24.628.379 2.969 3.75 5.137 6.004 6.922 2 1.52 4.066 2.937 6.156 4.332l1.277.875c7.293 4.715 17.118 7.605 25.758 5.922 9.324-2.258 16.328-7.719 21.465-15.797 3.441-6.187 7.191-14.273 6.5-21.5-.937-1.219-.937-1.219-2.312-2.156-.504-.38-1.004-.758-1.524-1.145-.27-.195-.543-.39-.82-.594-.856-.613-1.7-1.246-2.54-1.878A75.5 75.5 0 0 0 253 154.5l-1.75-.875c-13.566-4.844-26.07-2.625-35.656 8.492m0 0"
				></path><path
					style="fill:#195881;"
					d="M238.5 157c4.707 1.2 8.871 5.742 11.344 9.734 3.644 7.028 4.82 14.727 3.312 22.54-1.246 3.667-3.46 7.632-7.07 9.414-3.445.996-7.024.78-10.274-.72-3.37-1.937-5.867-4.624-7.812-7.968v-1h-1c-3.45-7.09-5.023-15.156-2.875-22.937 2.555-6.747 7.371-9.704 14.375-9.063m-10.29 4.941c-3.757 5.079-4.382 10.922-3.491 17.059 1.496 6.996 4.847 13.023 10.875 17 2.87 1.453 5.77 1.531 8.906 1 2.89-1.094 4.54-2.758 5.969-5.469.36-.836.707-1.68 1.031-2.531l.656-1.625c1.375-7.512-.133-14.672-4.336-20.973-2.277-3.21-4.968-6.218-8.82-7.402-4.367-.437-7.824-.602-10.79 2.941m0 0"
				></path><path
					style="fill:#545b70;"
					d="m238.5 169-.344 1.563c-.176 2.18.223 3.101 1.344 4.937h2.5c.164-.988.328-1.98.5-3 2.71 3.234 2.813 5.875 2.5 10-.656 1.781-.656 1.781-1.5 3l-.594.938c-1.554.964-3.168.851-4.906.562-2.754-1.297-4.191-3.332-5.5-6-.965-2.969-.93-6.352.156-9.25.278-.414.559-.824.844-1.25.207-.309.414-.617.625-.937 1.398-.899 2.762-.653 4.375-.563m0 0"
				></path><path
					style="fill:#f4f6f8;"
					d="M240.281 169.031c1.219.469 1.219.469 1.875 1.25.504 1.79.434 3.36.344 5.219-.5.5-.5.5-1.687.656-1.313-.156-1.313-.156-2.188-.937-.824-1.606-1.059-2.918-1.125-4.719.79-1.402 1.18-1.508 2.781-1.469m0 0"
				></path><path
					style="fill:#12527b;"
					d="M252.5 178.5h1q.059 2.204.094 4.406c.011.418.023.832.039 1.262q.005.601.015 1.215l.024 1.12c-.215 1.259-.711 1.692-1.672 2.497-.555-1.668-.426-1.887 0-3.5q.165-1.81.281-3.625c.043-.633.082-1.262.125-1.914zm0 0"
				></path><path
					style="fill:#207bb2;"
					d="M241 190c.66.164 1.32.328 2 .5.164 1.484.328 2.969.5 4.5H242c-.8-1.754-1.11-3.07-1-5m5.5-5.5c1.617.277 2.512.664 3.5 2v2c-1.48-.305-2.191-.625-3.5-1.5-.094-1.312-.094-1.312 0-2.5m0 0"
				></path><path
					style="fill:#207bb1;"
					d="M234 187.5c.496.164.988.328 1.5.5-.293 3.078-.293 3.078-.5 4-.496.246-.496.246-1 .5q-.491-.244-1-.5c.438-3.937.438-3.937 1-4.5m0 0"
				></path><path
					style="fill:#207bb2;"
					d="M229 178.5c.496.328.988.66 1.5 1-.164.66-.328 1.32-.5 2-.824.164-1.648.328-2.5.5l-.5-2.5c.66-.328 1.32-.66 2-1m18.5-4.5c.836.145 1.672.309 2.5.5l-.5 2.5c-.937.313-.937.313-2 .5l-1-1c.27-1.77.27-1.77 1-2.5m0 0"
				></path><path
					style="fill:#207bb1;"
					d="M242.5 163.5c.496.164.988.328 1.5.5-.164 1.32-.328 2.64-.5 4h-2c.438-3.937.438-3.937 1-4.5m0 0"
				></path><path
					style="fill:#207bb2;"
					d="M234 161h1c.8 1.754 1.11 3.07 1 5-.66-.164-1.32-.328-2-.5-.437-3.078-.437-3.078-.5-4zm0 0"
				></path><path
					style="fill:#207bb1;"
					d="M227.5 167.5c1.234.574 2.023 1.023 3 2v2c-1.383-.191-1.922-.418-2.906-1.437-.196-.352-.39-.704-.594-1.063.164-.496.328-.988.5-1.5m0 0"
				></path></svg>